<svg viewBox="0 0 14 14" xmlns="http://www.w3.org/2000/svg"><path d="m0 0h14v14h-14z" fill="none" visibility="hidden"/><path d="m9.412959.00215164c-1.2436479.143728-1.9497599 1.50720416-2.0396119 2.69150056-.146905 1.052842.312713 2.3962959 1.418543 2.638386.9583179.085476 1.7207429-.8148456 2.0339289-1.6736731.36986-1.0749745.380663-2.5105201-.516781-3.31585826-.249285-.216036-.569367-.3472711-.896079-.3403552zm-5.0729339.056367c-1.034807.074858-1.5652 1.27744256-1.493223 2.24276386.0088 1.2907239.717612 2.7424122 2.010186 3.0488129.963956.1042448 1.606661-.9181087 1.66656-1.812036.123011-1.3680543-.483132-3.02530546-1.855765-3.43834986-.106687-.029465-.217332-.044089-.327758-.041191zm8.3150179 4.14510596c-1.388365.1017608-2.266355 1.5813816-2.326691 2.9184062-.07305.8707439.489487 1.9657608 1.436683 1.9057498 1.416562-.150155 2.270601-1.7289636 2.235395-3.1007239-.0091-.7897291-.509551-1.6905178-1.345387-1.7234321zm-12.64428686 1.8049017c-.12855096 1.481506.908149 3.1560203 2.41413596 3.2493013.912778-.06096 1.343188-1.121093 1.238576-1.9598358-.08336-1.2375515-.910818-2.504836-1.985899-2.6703939-1.07507996-.165558-1.68385892.5939701-1.66681296 1.3809284zm7.14860896 1.2638209c-1.411887.00329-2.70277.9264694-3.392913 2.1755314-.578235.9334254-1.050947 1.9901564-1.140853 3.1053424.01967.860048.840276 1.575842 1.663122 1.404534 1.173683-.152345 2.222485-.967418 3.44297-.8147 1.014283.08097 1.8507729.867482 2.8748439.856051.994345.03734 1.56796-1.102139 1.188753-1.994632-.408054-1.277895-1.199181-2.3892804-2.048311-3.3902274-.677359-.7378166-1.5645249-1.3745649-2.5876119-1.3418994z"/></svg>