<svg enable-background="new 0 0 256 256" height="256" viewBox="0 0 256 256" width="256" xmlns="http://www.w3.org/2000/svg"><path d="m230.468 27.223h-204.729c-7.921 0-14.366 6.445-14.366 14.366v24.526c0 7.921 6.445 14.366 14.366 14.366h2.24c-.028.347-.053.695-.053 1.049v6.562c0 7.043 5.73 12.773 12.773 12.773h.028v6.213c0 11.219 7.614 20.846 18.295 24.637v97.395c0 5.522 4.477 10 10 10h24.809c.735 0 1.45-.085 2.141-.235h18.402c.69.15 1.405.235 2.141.235h23.297c.735 0 1.45-.085 2.141-.235h18.401c.69.15 1.405.235 2.141.235h24.688c5.522 0 10-4.478 10-10v-97.394c10.682-3.791 18.298-13.418 18.298-24.638v-6.213h.028c7.043 0 12.773-5.73 12.773-12.773v-6.562c0-.354-.024-.702-.053-1.049h2.239c7.922 0 14.366-6.445 14.366-14.366v-24.526c0-7.921-6.444-14.366-14.366-14.366z" fill="#d1d1d1"/><g fill="#454545"><path d="m50.727 99.448v7.631c0 9.015 8.186 16.321 18.295 16.359v105.672h24.809v-82.499c0-6.214 5.084-11.299 11.299-11.299h.084c6.215 0 11.3 5.085 11.3 11.299v82.499h23.297v-82.434c0-6.25 5.104-11.364 11.341-11.364 6.238 0 11.342 5.114 11.342 11.364v82.434h24.688v-105.672c10.111-.039 18.298-7.344 18.298-16.359v-7.631z"/><path d="m218.281 81.531c0-1.525-1.248-2.773-2.773-2.773h-174.81c-1.525 0-2.773 1.248-2.773 2.773v6.562c0 1.525 1.248 2.773 2.773 2.773h174.81c1.525 0 2.773-1.248 2.773-2.773z"/><path d="m234.834 41.589c0-2.401-1.965-4.366-4.366-4.366h-204.729c-2.401 0-4.366 1.965-4.366 4.366v24.526c0 2.401 1.965 4.366 4.366 4.366h204.729c2.401 0 4.366-1.965 4.366-4.366z"/></g></svg>