<svg viewBox="0 0 72 72" xmlns="http://www.w3.org/2000/svg"><g style="fill:none;stroke:#000;stroke-linecap:round;stroke-linejoin:round;stroke-miterlimit:10;stroke-width:2"><path d="m31 35v-7h10v6.9999"/><path d="m37 35h-2v-3c0-.5523.4477-1 1-1"/><path d="m52 55h-32v-14-2h7v2h5l-.0002-2h8.0002v2h5v-2h7v2-2z"/><path d="m10 32h10v23h-10z"/><path d="m52 32h10v23h-10z"/><path d="m8 26h14v6h-14z"/><path d="m29.5 22h13v6h-13z"/><path d="m50 26h14v6h-14z"/><path d="m36 12-4.5 10h9z"/><path d="m15 16-5.5 10h11z"/><path d="m57 16-5.5 10h11z"/><path d="m40.5 55h-9v-6c0-1.6569 1.3431-3 3-3h3c1.6569 0 3 1.3431 3 3z"/><path d="m36 46v9"/><path d="m16 40h-2v-3c0-.5523.4477-1 1-1"/><path d="m58 40h-2v-3c0-.5523.4477-1 1-1"/></g></svg>